<?xml version="1.0" encoding="utf-8"?>
<!-- Generator: Adobe Illustrator 25.2.3, SVG Export Plug-In . SVG Version: 6.00 Build 0)  -->
<svg version="1.1" id="Layer_1" xmlns="http://www.w3.org/2000/svg" xmlns:xlink="http://www.w3.org/1999/xlink" x="0px" y="0px"
	 viewBox="0 0 2000 460" style="enable-background:new 0 0 2000 460;" xml:space="preserve">
<style type="text/css">
	.st0{fill:#FFFFFF;stroke:#000000;stroke-miterlimit:10;}
	.st1{fill:#E02C5E;}
	.st2{fill:#FFAD1F;}
	.st3{fill:#1F93FF;}
</style>
<rect class="st0" width="2000" height="460"/>
<g>
	<g>
		<path d="M641.5,175.5H517.9v-127H404.8v363h113.1V264.7h123.6v146.8h113.6v-363H641.5V175.5z M49,138.1h115.3v273.4h113.1V138.1
			h115.3V48.5H49V138.1z M1075.3,126l29.3-77.5H767.1v363h200.2l31.1-82.2h-118v-71.6h145l28-74h-173V126H1075.3z"/>
	</g>
</g>
<path class="st1" d="M1262.3,411.5h118.4l-137.5-363h-123.4l-137.6,363h115.5l17.8-59.9H1244L1262.3,411.5z M1140.1,273.1l40-130.5
	l40.4,130.5H1140.1z"/>
<path class="st2" d="M1305.7,411.5h168c20.1,0,42.6-3.3,67.4-9.9c18.1-4.8,35.1-14.4,50.9-28.9c15.8-14.4,28.2-32.4,37.1-53.7
	c8.9-21.4,13.4-51.5,13.4-90.3c0-24.8-3-48.2-9-70.3s-15.7-41.5-29-58.2s-30.2-29.5-50.6-38.4c-20.3-8.8-47.1-13.3-80.2-13.3h-168
	V411.5z M1447,130.7c29.3,0,50.3,7.1,62.9,21.3c12.6,14.2,19,40.5,19,79c0,29.1-2.8,50.1-8.5,63c-5.7,13-13.5,22-23.5,27.2
	s-26.8,7.8-50.4,7.8h-27.7V130.7H1447z"/>
<path class="st3" d="M1679.2,222.3L1553,411.5h126.3l72.3-116.6l72.3,116.6H1951l-124.7-187.2l113.9-175.8h-123.3l-63,111.7
	L1689,48.5h-124.6L1679.2,222.3z"/>
</svg>
